<svg xmlns="http://www.w3.org/2000/svg" viewBox="0 0 1200 630" role="img" aria-label="BanqueDeFamille - l'argent de poche sans disputes quotidiennes">
  <rect width="1200" height="630" fill="#fff8ec"/>
  <rect x="72" y="72" width="76" height="76" rx="22" fill="#31533f"/>
  <g fill="none" stroke="#fff8ec" stroke-width="6" stroke-linecap="round" stroke-linejoin="round" transform="translate(91 92) scale(.45)">
    <path d="M53 78h12a10 10 0 0 0 0-20H49c-5 0-9 2-12 6L18 84"/>
    <path d="m31 103 11-10c3-3 7-5 12-5h20c7 0 13-3 18-8l23-22a10 10 0 0 0-14-14L80 64"/>
    <path d="m14 80 29 29"/>
    <circle cx="86" cy="42" r="14"/>
    <circle cx="38" cy="30" r="15"/>
  </g>
  <text x="168" y="122" font-family="Arial, sans-serif" font-size="36" font-weight="900" fill="#31533f">BanqueDeFamille</text>
  <text x="72" y="305" font-family="Arial, sans-serif" font-size="82" font-weight="900" fill="#25312b">L'argent de poche</text>
  <text x="72" y="390" font-family="Arial, sans-serif" font-size="82" font-weight="900" fill="#25312b">sans disputes.</text>
  <text x="72" y="470" font-family="Arial, sans-serif" font-size="30" fill="#5f665f">Un systeme familial chaleureux pour l'epargne, les accords et un sandbox securise.</text>
  <text x="72" y="555" font-family="Arial, sans-serif" font-size="24" font-weight="700" fill="#31533f">Outil educatif - Pas de donnees bancaires reelles - Sandbox d'abord</text>
</svg>
